<svg width="40" height="40" viewBox="0 0 55 55" fill="none" xmlns="http://www.w3.org/2000/svg">
<path d="M13.4062 39.1877C15.3541 37.6981 17.5312 36.5236 19.9374 35.6642C22.3437 34.8049 24.8645 34.3752 27.4999 34.3752C30.1353 34.3752 32.6562 34.8049 35.0624 35.6642C37.4687 36.5236 39.6458 37.6981 41.5937 39.1877C42.9305 37.6217 43.9713 35.8457 44.7161 33.8595C45.4609 31.8734 45.8333 29.7536 45.8333 27.5002C45.8333 22.4203 44.0477 18.0948 40.4765 14.5236C36.9053 10.9524 32.5798 9.16683 27.4999 9.16683C22.4201 9.16683 18.0945 10.9524 14.5234 14.5236C10.9522 18.0948 9.16659 22.4203 9.16659 27.5002C9.16659 29.7536 9.53898 31.8734 10.2838 33.8595C11.0286 35.8457 12.0694 37.6217 13.4062 39.1877ZM27.4999 29.7918C25.2464 29.7918 23.3463 29.0184 21.7994 27.4715C20.2525 25.9246 19.4791 24.0245 19.4791 21.771C19.4791 19.5175 20.2525 17.6174 21.7994 16.0705C23.3463 14.5236 25.2464 13.7502 27.4999 13.7502C29.7534 13.7502 31.6536 14.5236 33.2004 16.0705C34.7473 17.6174 35.5208 19.5175 35.5208 21.771C35.5208 24.0245 34.7473 25.9246 33.2004 27.4715C31.6536 29.0184 29.7534 29.7918 27.4999 29.7918ZM27.4999 50.4168C24.3298 50.4168 21.3506 49.8153 18.5624 48.6121C15.7742 47.409 13.3489 45.7762 11.2864 43.7137C9.22388 41.6512 7.59106 39.2259 6.38794 36.4377C5.18481 33.6495 4.58325 30.6703 4.58325 27.5002C4.58325 24.33 5.18481 21.3509 6.38794 18.5627C7.59106 15.7745 9.22388 13.3491 11.2864 11.2866C13.3489 9.22412 15.7742 7.59131 18.5624 6.38818C21.3506 5.18506 24.3298 4.5835 27.4999 4.5835C30.6701 4.5835 33.6492 5.18506 36.4374 6.38818C39.2256 7.59131 41.651 9.22412 43.7135 11.2866C45.776 13.3491 47.4088 15.7745 48.6119 18.5627C49.815 21.3509 50.4166 24.33 50.4166 27.5002C50.4166 30.6703 49.815 33.6495 48.6119 36.4377C47.4088 39.2259 45.776 41.6512 43.7135 43.7137C41.651 45.7762 39.2256 47.409 36.4374 48.6121C33.6492 49.8153 30.6701 50.4168 27.4999 50.4168Z" fill="#D9D2DB"/>
</svg>
