<svg width="32" height="32" viewBox="0 0 32 32" fill="none" xmlns="http://www.w3.org/2000/svg">
<path d="M16 17.3335C16.7364 17.3335 17.3333 16.7365 17.3333 16.0002C17.3333 15.2638 16.7364 14.6668 16 14.6668C15.2636 14.6668 14.6667 15.2638 14.6667 16.0002C14.6667 16.7365 15.2636 17.3335 16 17.3335Z" stroke="#D9D2DB" stroke-width="3" stroke-linecap="round" stroke-linejoin="round"/>
<path d="M16 8.00016C16.7364 8.00016 17.3333 7.40321 17.3333 6.66683C17.3333 5.93045 16.7364 5.3335 16 5.3335C15.2636 5.3335 14.6667 5.93045 14.6667 6.66683C14.6667 7.40321 15.2636 8.00016 16 8.00016Z" stroke="#D9D2DB" stroke-width="3" stroke-linecap="round" stroke-linejoin="round"/>
<path d="M16 26.6668C16.7364 26.6668 17.3333 26.0699 17.3333 25.3335C17.3333 24.5971 16.7364 24.0002 16 24.0002C15.2636 24.0002 14.6667 24.5971 14.6667 25.3335C14.6667 26.0699 15.2636 26.6668 16 26.6668Z" stroke="#D9D2DB" stroke-width="3" stroke-linecap="round" stroke-linejoin="round"/>
</svg>
