<svg width="40" height="40" viewBox="0 0 55 55" fill="none" xmlns="http://www.w3.org/2000/svg">
<path d="M35.3891 37.8125L25.7812 28.2047V12.0312H29.2188V26.7781L37.8125 35.3891L35.3891 37.8125Z" fill="#D9D2DB"/>
<path d="M27.5 3.4375C24.2945 3.43795 21.1216 4.08165 18.1693 5.33047C15.217 6.57928 12.5453 8.40783 10.3125 10.7078V3.4375H6.875V17.1875H20.625V13.75H12.1687C15.3932 10.1669 19.7708 7.82638 24.5412 7.13488C29.3117 6.44339 34.1736 7.44462 38.2827 9.96469C42.3918 12.4848 45.4885 16.3645 47.0348 20.93C48.5812 25.4956 48.4796 30.4585 46.7477 34.9569C45.0158 39.4554 41.763 43.2051 37.5542 45.5549C33.3455 47.9048 28.4466 48.7062 23.7084 47.8201C18.9703 46.9339 14.6921 44.4162 11.617 40.7042C8.54192 36.9922 6.86412 32.3203 6.875 27.5H3.4375C3.4375 32.2591 4.84874 36.9114 7.49276 40.8684C10.1368 44.8255 13.8948 47.9096 18.2917 49.7309C22.6885 51.5521 27.5267 52.0286 32.1944 51.1001C36.862 50.1717 41.1496 47.88 44.5148 44.5148C47.88 41.1496 50.1717 36.862 51.1001 32.1944C52.0286 27.5267 51.5521 22.6885 49.7309 18.2917C47.9096 13.8948 44.8255 10.1368 40.8684 7.49276C36.9114 4.84874 32.2591 3.4375 27.5 3.4375Z" fill="#D9D2DB"/>
</svg>
