<svg width="40" height="40" viewBox="0 0 55 55" fill="none" xmlns="http://www.w3.org/2000/svg">
<path d="M38.9584 48.125V43.5417C38.9584 41.1105 37.9926 38.7789 36.2736 37.0599C34.5545 35.3408 32.2229 34.375 29.7917 34.375H11.4584C9.02726 34.375 6.69569 35.3408 4.9766 37.0599C3.25752 38.7789 2.29175 41.1105 2.29175 43.5417V48.125M52.7084 48.125V43.5417C52.7069 41.5106 52.0309 39.5376 50.7865 37.9324C49.5422 36.3272 47.8 35.1807 45.8334 34.6729M36.6667 7.17292C38.6385 7.67777 40.3862 8.82452 41.6343 10.4324C42.8823 12.0402 43.5597 14.0177 43.5597 16.0531C43.5597 18.0885 42.8823 20.066 41.6343 21.6739C40.3862 23.2817 38.6385 24.4285 36.6667 24.9333M29.7917 16.0417C29.7917 21.1043 25.6877 25.2083 20.6251 25.2083C15.5625 25.2083 11.4584 21.1043 11.4584 16.0417C11.4584 10.9791 15.5625 6.875 20.6251 6.875C25.6877 6.875 29.7917 10.9791 29.7917 16.0417Z" stroke="#D9D2DB" stroke-width="4" stroke-linecap="round" stroke-linejoin="round"/>
</svg>
