<svg width="40" height="40" viewBox="0 0 55 55" fill="none" xmlns="http://www.w3.org/2000/svg">
<path d="M6.875 13.7502H11.4583M11.4583 13.7502H48.125M11.4583 13.7502V45.8335C11.4583 47.0491 11.9412 48.2149 12.8008 49.0744C13.6603 49.9339 14.8261 50.4168 16.0417 50.4168H38.9583C40.1739 50.4168 41.3397 49.9339 42.1992 49.0744C43.0588 48.2149 43.5417 47.0491 43.5417 45.8335V13.7502M18.3333 13.7502V9.16683C18.3333 7.95125 18.8162 6.78546 19.6758 5.92592C20.5353 5.06638 21.7011 4.5835 22.9167 4.5835H32.0833C33.2989 4.5835 34.4647 5.06638 35.3242 5.92592C36.1838 6.78546 36.6667 7.95125 36.6667 9.16683V13.7502M22.9167 25.2085V38.9585M32.0833 25.2085V38.9585" stroke="#D9D2DB" stroke-width="4" stroke-linecap="round" stroke-linejoin="round"/>
</svg>
